<?xml version="1.0" encoding="UTF-8"?>
<svg id="Layer_2" data-name="Layer 2" xmlns="http://www.w3.org/2000/svg" viewBox="0 0 17.42 16.45">
  <defs>
    <style>
      .cls-1 {
        fill: #bdc0cb;
      }
    </style>
  </defs>
  <g id="Layer_2-2" data-name="Layer 2">
    <g>
      <path class="cls-1" d="M17.08,10.25c-.1,.01-.2,.01-.28,.01-.26,0-.43-.05-.51-.17-.08-.12-.12-.28-.12-.48V3.11c0-1.06-.41-1.85-1.24-2.36-.82-.5-1.9-.75-3.22-.75-1.15,0-2.15,.27-3.02,.81-.86,.55-1.32,1.52-1.35,2.91h1.77c.07-.58,.22-1.02,.45-1.32,.41-.54,1.12-.8,2.1-.8,.86,0,1.52,.14,1.97,.44,.46,.29,.69,.76,.69,1.41,0,.31-.04,.56-.12,.73-.15,.3-.44,.49-.88,.54l-3.02,.38c-.3,.04-.58,.09-.84,.16,.43,.4,.81,.87,1.1,1.39,.18-.04,.38-.08,.6-.11l1.14-.14c.35-.04,.71-.11,1.08-.21,.36-.1,.66-.23,.89-.37v1.52c0,1.16-.53,2-1.58,2.51-.42,.21-.86,.35-1.3,.41-.04,.55-.16,1.1-.36,1.62,.6-.07,1.15-.24,1.67-.51,.72-.37,1.28-.81,1.66-1.32,.07,.45,.18,.8,.33,1.05,.3,.46,.77,.69,1.42,.69,.27,0,.48-.01,.63-.03,.16-.02,.38-.07,.68-.16v-1.4c-.12,.02-.23,.04-.34,.05ZM6.86,7.64c-.07,.29-.11,.61-.11,.95,0,.92,.3,1.68,.91,2.3,.16-.34,.25-.72,.25-1.12,0-.87-.41-1.64-1.05-2.13Z"/>
      <path class="cls-1" d="M11.44,15.19l-2.07-2.31c.22-.3,.41-.62,.56-.96,.24-.5,.39-1.05,.45-1.63,.02-.17,.03-.34,.03-.52,0-1.03-.29-1.98-.81-2.78-.31-.51-.71-.95-1.18-1.31-.88-.7-2-1.12-3.22-1.12C2.33,4.56,0,6.89,0,9.77s2.33,5.2,5.2,5.2c1.15,0,2.22-.38,3.09-1.03l2.04,2.26c.15,.16,.35,.25,.56,.25,.18,0,.36-.07,.49-.19,.32-.29,.35-.75,.06-1.07Zm-2.97-3.69c-.62,1.17-1.86,1.96-3.27,1.96-2.05,0-3.7-1.65-3.7-3.69s1.65-3.71,3.7-3.71c.76,0,1.48,.23,2.07,.63,.69,.47,1.22,1.16,1.47,1.97h0c.06,.2,.11,.39,.13,.59,.03,.17,.04,.34,.04,.52,0,.63-.16,1.21-.44,1.73Z"/>
    </g>
  </g>
</svg>