<svg version="1.1" 
	 xmlns="http://www.w3.org/2000/svg" xmlns:xlink="http://www.w3.org/1999/xlink" x="0px" y="0px" viewBox="0 0 17.4 16.5"
	 style="enable-background:new 0 0 17.4 16.5;" xml:space="preserve">
<g>
	<g>
		<path style="fill:#BDC0CB;" d="M17.1,10.2c-0.1,0-0.2,0-0.3,0c-0.3,0-0.4-0.1-0.5-0.2s-0.1-0.3-0.1-0.5V3.1c0-1.1-0.4-1.9-1.2-2.4
			C14.1,0.2,13,0,11.7,0c-1.1,0-2.2,0.3-3,0.8C7.8,1.4,7.4,2.3,7.3,3.7h1.8c0.1-0.6,0.2-1,0.4-1.3c0.4-0.5,1.1-0.8,2.1-0.8
			c0.9,0,1.5,0.1,2,0.4c0.5,0.3,0.7,0.8,0.7,1.4c0,0.3,0,0.6-0.1,0.7c-0.1,0.3-0.4,0.5-0.9,0.5l-3,0.4c-0.3,0-0.6,0.1-0.8,0.2
			c0.4,0.4,0.8,0.9,1.1,1.4c0.2,0,0.4-0.1,0.6-0.1l1.1-0.1c0.4,0,0.7-0.1,1.1-0.2C13.7,6.1,14,6,14.3,5.8v1.5c0,1.2-0.5,2-1.6,2.5
			c-0.4,0.2-0.9,0.4-1.3,0.4c0,0.6-0.2,1.1-0.4,1.6c0.6-0.1,1.1-0.2,1.7-0.5c0.7-0.4,1.3-0.8,1.7-1.3c0.1,0.4,0.2,0.8,0.3,1.1
			c0.3,0.5,0.8,0.7,1.4,0.7c0.3,0,0.5,0,0.6,0c0.2,0,0.4-0.1,0.7-0.2v-1.4C17.3,10.2,17.2,10.2,17.1,10.2z M6.9,7.6
			c-0.1,0.3-0.1,0.6-0.1,1c0,0.9,0.3,1.7,0.9,2.3c0.2-0.3,0.2-0.7,0.2-1.1C7.9,8.9,7.5,8.1,6.9,7.6z"/>
		<path style="fill:#BDC0CB;" d="M11.4,15.2l-2.1-2.3c0.2-0.3,0.4-0.6,0.6-1c0.2-0.5,0.4-1.1,0.4-1.6c0-0.2,0-0.3,0-0.5
			c0-1-0.3-2-0.8-2.8C9.3,6.5,8.9,6,8.4,5.7C7.5,5,6.4,4.6,5.2,4.6C2.3,4.6,0,6.9,0,9.8S2.3,15,5.2,15c1.2,0,2.2-0.4,3.1-1l2,2.3
			c0.1,0.2,0.4,0.2,0.6,0.2c0.2,0,0.4-0.1,0.5-0.2C11.7,16,11.7,15.5,11.4,15.2z M8.5,11.5c-0.6,1.2-1.9,2-3.3,2
			c-2,0-3.7-1.6-3.7-3.7s1.6-3.7,3.7-3.7c0.8,0,1.5,0.2,2.1,0.6c0.7,0.5,1.2,1.2,1.5,2l0,0c0.1,0.2,0.1,0.4,0.1,0.6
			c0,0.2,0,0.3,0,0.5C8.9,10.4,8.8,11,8.5,11.5z"/>
	</g>
</g>
</svg>
