<?xml version="1.0" encoding="UTF-8"?>
<svg id="Layer_2" data-name="Layer 2" xmlns="http://www.w3.org/2000/svg" viewBox="0 0 16.4 17.37">
  <defs>
    <style>
      .cls-1 {
        fill: #bdc0cb;
      }
    </style>
  </defs>
  <g id="Layer_2-2" data-name="Layer 2">
    <g>
      <path class="cls-1" d="M8.22,12.12c-.9,0-1.77-.35-2.42-1-.82-.82-1.16-1.95-.95-3.1,.25-1.35,1.36-2.46,2.7-2.71,1.14-.21,2.27,.13,3.08,.95,.8,.81,1.15,1.97,.93,3.1h0c-.26,1.35-1.34,2.43-2.68,2.69-.22,.04-.44,.06-.66,.06Zm0-6.01c-.17,0-.33,.02-.5,.05-1,.19-1.83,1.02-2.01,2.02-.16,.87,.1,1.71,.71,2.33,.61,.61,1.46,.87,2.32,.7,.99-.19,1.81-1.02,2-2.01h0c.17-.86-.09-1.71-.7-2.33-.49-.49-1.13-.76-1.81-.76Zm2.93,3.17h0Z"/>
      <path class="cls-1" d="M8.21,17.37c-.42,0-.83-.03-1.24-.09-.17-.02-.3-.14-.35-.29l-1.48-2.59H2.08c-.12,0-.24-.05-.32-.15-.65-.75-1.31-1.56-1.69-2.67-.02-.05-.02-.09-.02-.14,0-.08,.02-.16,.06-.22l1.39-2.43L.06,6.28c-.06-.11-.07-.24-.04-.35,.33-1,.9-1.96,1.74-2.91,.08-.09,.2-.15,.32-.15h3.05L6.61,.31c.06-.11,.18-.19,.3-.21,.82-.13,1.78-.13,2.6,0,.15,0,.24,.08,.31,.21l1.46,2.56h3.05c.12,0,.24,.05,.32,.15,.84,.95,1.38,1.85,1.71,2.82,.04,.12,.03,.25-.03,.36l-1.48,2.58,1.45,2.52c.06,.11,.08,.24,.03,.36-.38,1.06-1.03,1.86-1.66,2.58-.08,.09-.2,.15-.32,.15h-3.06l-1.5,2.62c-.06,.14-.18,.24-.33,.26-.4,.06-.82,.09-1.25,.09Zm-.9-.92c.59,.07,1.21,.07,1.8,0l1.55-2.71c.08-.13,.22-.22,.37-.22h3.11c.49-.58,.99-1.21,1.3-1.98l-1.47-2.55c-.08-.13-.08-.3,0-.43l1.51-2.62c-.28-.74-.71-1.45-1.35-2.2h-3.1c-.15,0-.3-.08-.37-.22l-1.49-2.6c-.67-.08-1.33-.08-1.94,0l-1.49,2.6c-.08,.13-.22,.22-.37,.22H2.28c-.64,.76-1.09,1.51-1.38,2.28l1.46,2.54c.08,.13,.08,.3,0,.43l-1.42,2.48c.31,.81,.82,1.46,1.33,2.06h3.11c.15,0,.3,.08,.37,.22l1.55,2.71Zm.91-4.33c-.9,0-1.77-.35-2.42-1-.82-.82-1.16-1.95-.95-3.1,.25-1.35,1.36-2.46,2.7-2.71,1.14-.21,2.27,.13,3.08,.95,.8,.81,1.15,1.97,.93,3.1-.26,1.35-1.34,2.43-2.68,2.69h0c-.22,.04-.44,.06-.66,.06Zm.58-.49h0Zm-.59-5.52c-.17,0-.33,.02-.5,.05-1,.19-1.83,1.02-2.01,2.02-.16,.87,.1,1.71,.71,2.33,.61,.61,1.46,.87,2.32,.7h0c.99-.19,1.81-1.02,2-2.01,.17-.86-.09-1.71-.7-2.33-.49-.49-1.13-.76-1.81-.76Z"/>
    </g>
  </g>
</svg>