<svg version="1.1"
	 xmlns="http://www.w3.org/2000/svg" xmlns:xlink="http://www.w3.org/1999/xlink" x="0px" y="0px" viewBox="0 0 16.4 17.4"
	 style="enable-background:new 0 0 16.4 17.4;" xml:space="preserve">
<g>
	<g>
		<path style="fill:#BDC0CB;" d="M8.2,12.1c-0.9,0-1.8-0.4-2.4-1C5,10.3,4.6,9.2,4.9,8c0.2-1.3,1.4-2.5,2.7-2.7
			c1.1-0.2,2.3,0.1,3.1,0.9c0.8,0.8,1.1,2,0.9,3.1l0,0c-0.3,1.4-1.3,2.4-2.7,2.7C8.7,12.1,8.4,12.1,8.2,12.1L8.2,12.1z M8.2,6.1
			c-0.2,0-0.3,0-0.5,0.1c-1,0.2-1.8,1-2,2c-0.2,0.9,0.1,1.7,0.7,2.3c0.6,0.6,1.5,0.9,2.3,0.7c1-0.2,1.8-1,2-2l0,0
			c0.2-0.9-0.1-1.7-0.7-2.3C9.6,6.4,8.9,6.1,8.2,6.1L8.2,6.1z M11.2,9.3L11.2,9.3z"/>
		<path style="fill:#BDC0CB;" d="M8.2,17.4c-0.4,0-0.8,0-1.2-0.1c-0.2,0-0.3-0.1-0.3-0.3l-1.5-2.6H2.1c-0.1,0-0.2-0.1-0.3-0.1
			c-0.6-0.8-1.3-1.6-1.7-2.7c0-0.1,0-0.1,0-0.1c0-0.1,0-0.2,0.1-0.2l1.4-2.4L0.1,6.3C0,6.2,0,6,0,5.9c0.3-1,0.9-2,1.7-2.9
			C1.8,2.9,2,2.9,2.1,2.9h3.1l1.5-2.6c0.1-0.1,0.2-0.2,0.3-0.2C7.7,0,8.7,0,9.5,0.1c0.1,0,0.2,0.1,0.3,0.2l1.5,2.6h3.1
			c0.1,0,0.2,0,0.3,0.2c0.8,1,1.4,1.8,1.7,2.8c0,0.1,0,0.2,0,0.4l-1.5,2.6l1.5,2.5c0.1,0.1,0.1,0.2,0,0.4c-0.4,1.1-1,1.9-1.7,2.6
			c-0.1,0.1-0.2,0.1-0.3,0.1h-3.1L9.8,17c-0.1,0.1-0.2,0.2-0.3,0.3C9.1,17.3,8.6,17.4,8.2,17.4L8.2,17.4z M7.3,16.5
			c0.6,0.1,1.2,0.1,1.8,0l1.6-2.7c0.1-0.1,0.2-0.2,0.4-0.2h3.1c0.5-0.6,1-1.2,1.3-2L14,9c-0.1-0.1-0.1-0.3,0-0.4l1.5-2.6
			c-0.3-0.7-0.7-1.4-1.4-2.2H11c-0.1,0-0.3-0.1-0.4-0.2L9.2,0.9c-0.7-0.1-1.3-0.1-1.9,0L5.7,3.5C5.7,3.7,5.5,3.7,5.4,3.7H2.3
			C1.6,4.5,1.2,5.3,0.9,6l1.5,2.5c0.1,0.1,0.1,0.3,0,0.4l-1.4,2.5c0.3,0.8,0.8,1.5,1.3,2.1h3.1c0.2,0,0.3,0.1,0.4,0.2L7.3,16.5
			L7.3,16.5z M8.2,12.1c-0.9,0-1.8-0.4-2.4-1C5,10.3,4.6,9.2,4.9,8c0.2-1.3,1.4-2.5,2.7-2.7c1.1-0.2,2.3,0.1,3.1,0.9
			c0.8,0.8,1.1,2,0.9,3.1c-0.3,1.4-1.3,2.4-2.7,2.7l0,0C8.7,12.1,8.4,12.1,8.2,12.1L8.2,12.1z M8.8,11.6L8.8,11.6z M8.2,6.1
			c-0.2,0-0.3,0-0.5,0.1c-1,0.2-1.8,1-2,2c-0.2,0.9,0.1,1.7,0.7,2.3c0.6,0.6,1.5,0.9,2.3,0.7l0,0c1-0.2,1.8-1,2-2
			c0.2-0.9-0.1-1.7-0.7-2.3C9.5,6.4,8.9,6.1,8.2,6.1L8.2,6.1z"/>
	</g>
</g>
</svg>
