<?xml version="1.0" encoding="utf-8"?>
<!-- Generator: Adobe Illustrator 26.4.1, SVG Export Plug-In . SVG Version: 6.00 Build 0)  -->
<svg version="1.1" id="Layer_1" xmlns="http://www.w3.org/2000/svg" xmlns:xlink="http://www.w3.org/1999/xlink" x="0px" y="0px"
	 viewBox="0 0 18.5 13.2" style="enable-background:new 0 0 18.5 13.2;" xml:space="preserve">
<g>
	<g>
		<path style="fill:#BDC0CB;" d="M17.1,13.2H1.4c-0.7,0-1.4-0.6-1.4-1.4V1.4C0,0.6,0.6,0,1.4,0h15.8c0.7,0,1.4,0.6,1.4,1.4v10.4
			C18.5,12.6,17.9,13.2,17.1,13.2L17.1,13.2z M1.4,1C1.1,1,1,1.2,1,1.4v10.4c0,0.2,0.2,0.4,0.4,0.4h15.8c0.2,0,0.4-0.2,0.4-0.4V1.4
			c0-0.2-0.2-0.4-0.4-0.4H1.4z"/>
		<path style="fill:#BDC0CB;" d="M12.6,10.2H5.9c-0.3,0-0.6-0.3-0.6-0.6S5.6,9,5.9,9h6.7c0.3,0,0.6,0.3,0.6,0.6S12.9,10.2,12.6,10.2
			z"/>
		<path style="fill:#BDC0CB;" d="M3.4,4.1H3c-0.3,0-0.5-0.2-0.5-0.5V3.1c0-0.3,0.2-0.5,0.5-0.5h0.4c0.3,0,0.5,0.2,0.5,0.5v0.4
			C3.9,3.8,3.7,4.1,3.4,4.1z"/>
		<path style="fill:#BDC0CB;" d="M5.8,4.1H5.4c-0.3,0-0.5-0.2-0.5-0.5V3.1c0-0.3,0.2-0.5,0.5-0.5h0.4c0.3,0,0.5,0.2,0.5,0.5v0.4
			C6.3,3.8,6.1,4.1,5.8,4.1z"/>
		<path style="fill:#BDC0CB;" d="M8.2,4.1H7.8c-0.3,0-0.5-0.2-0.5-0.5V3.1c0-0.3,0.2-0.5,0.5-0.5h0.4c0.3,0,0.5,0.2,0.5,0.5v0.4
			C8.7,3.8,8.5,4.1,8.2,4.1z"/>
		<path style="fill:#BDC0CB;" d="M10.6,4.1h-0.4c-0.3,0-0.5-0.2-0.5-0.5V3.1c0-0.3,0.2-0.5,0.5-0.5h0.4c0.3,0,0.5,0.2,0.5,0.5v0.4
			C11.1,3.8,10.9,4.1,10.6,4.1z"/>
		<path style="fill:#BDC0CB;" d="M13,4.1h-0.4c-0.3,0-0.5-0.2-0.5-0.5V3.1c0-0.3,0.2-0.5,0.5-0.5H13c0.3,0,0.5,0.2,0.5,0.5v0.4
			C13.6,3.8,13.3,4.1,13,4.1z"/>
		<path style="fill:#BDC0CB;" d="M15.5,4.1h-0.4c-0.3,0-0.5-0.2-0.5-0.5V3.1c0-0.3,0.2-0.5,0.5-0.5h0.4c0.3,0,0.5,0.2,0.5,0.5v0.4
			C16,3.8,15.8,4.1,15.5,4.1z"/>
		<path style="fill:#BDC0CB;" d="M3.4,6.6H3C2.7,6.6,2.5,6.4,2.5,6V5.7c0-0.3,0.2-0.6,0.5-0.6h0.4c0.3,0,0.5,0.2,0.5,0.6v0.4
			C3.9,6.4,3.7,6.6,3.4,6.6z"/>
		<path style="fill:#BDC0CB;" d="M5.8,6.6H5.4C5.1,6.6,4.9,6.4,4.9,6V5.7c0-0.3,0.2-0.6,0.5-0.6h0.4c0.3,0,0.5,0.2,0.5,0.6v0.4
			C6.3,6.4,6.1,6.6,5.8,6.6z"/>
		<path style="fill:#BDC0CB;" d="M8.2,6.6H7.8C7.5,6.6,7.3,6.4,7.3,6V5.7c0-0.3,0.2-0.6,0.5-0.6h0.4c0.3,0,0.5,0.2,0.5,0.6v0.4
			C8.7,6.4,8.5,6.6,8.2,6.6z"/>
		<path style="fill:#BDC0CB;" d="M10.6,6.6h-0.4C9.9,6.6,9.7,6.4,9.7,6V5.7c0-0.3,0.2-0.6,0.5-0.6h0.4c0.3,0,0.5,0.2,0.5,0.6v0.4
			C11.1,6.4,10.9,6.6,10.6,6.6z"/>
		<path style="fill:#BDC0CB;" d="M13,6.6h-0.4c-0.3,0-0.5-0.2-0.5-0.6V5.7c0-0.3,0.2-0.6,0.5-0.6H13c0.3,0,0.5,0.2,0.5,0.6v0.4
			C13.6,6.4,13.3,6.6,13,6.6z"/>
		<path style="fill:#BDC0CB;" d="M15.5,6.6h-0.4c-0.3,0-0.5-0.2-0.5-0.6V5.7c0-0.3,0.2-0.6,0.5-0.6h0.4c0.3,0,0.5,0.2,0.5,0.6v0.4
			C16,6.4,15.8,6.6,15.5,6.6z"/>
	</g>
</g>
</svg>
