<?xml version="1.0" encoding="UTF-8"?>
<svg id="Layer_2" data-name="Layer 2" xmlns="http://www.w3.org/2000/svg" viewBox="0 0 18.45 13.25">
  <defs>
    <style>
      .cls-1 {
        fill: #bdc0cb;
      }
    </style>
  </defs>
  <g id="Layer_2-2" data-name="Layer 2">
    <g>
      <path class="cls-1" d="M17.11,13.25H1.35c-.74,0-1.35-.64-1.35-1.42V1.42C0,.64,.6,0,1.35,0h15.76c.74,0,1.35,.64,1.35,1.42V11.82c0,.79-.6,1.42-1.35,1.42ZM1.35,1c-.22,0-.4,.19-.4,.42V11.82c0,.23,.18,.42,.4,.42h15.76c.22,0,.4-.19,.4-.42V1.42c0-.23-.18-.42-.4-.42H1.35Z"/>
      <path class="cls-1" d="M12.56,10.19H5.89c-.31,0-.57-.27-.57-.6s.25-.6,.57-.6h6.67c.31,0,.57,.27,.57,.6s-.25,.6-.57,.6Z"/>
      <path class="cls-1" d="M3.36,4.07h-.36c-.29,0-.52-.25-.52-.55v-.38c0-.3,.23-.55,.52-.55h.36c.29,0,.52,.25,.52,.55v.38c0,.3-.23,.55-.52,.55Z"/>
      <path class="cls-1" d="M5.78,4.07h-.36c-.29,0-.52-.25-.52-.55v-.38c0-.3,.23-.55,.52-.55h.36c.29,0,.52,.25,.52,.55v.38c0,.3-.23,.55-.52,.55Z"/>
      <path class="cls-1" d="M8.2,4.07h-.36c-.29,0-.52-.25-.52-.55v-.38c0-.3,.23-.55,.52-.55h.36c.29,0,.52,.25,.52,.55v.38c0,.3-.23,.55-.52,.55Z"/>
      <path class="cls-1" d="M10.62,4.07h-.36c-.29,0-.52-.25-.52-.55v-.38c0-.3,.23-.55,.52-.55h.36c.29,0,.52,.25,.52,.55v.38c0,.3-.23,.55-.52,.55Z"/>
      <path class="cls-1" d="M13.04,4.07h-.36c-.29,0-.52-.25-.52-.55v-.38c0-.3,.23-.55,.52-.55h.36c.29,0,.52,.25,.52,.55v.38c0,.3-.23,.55-.52,.55Z"/>
      <path class="cls-1" d="M15.46,4.07h-.36c-.29,0-.52-.25-.52-.55v-.38c0-.3,.23-.55,.52-.55h.36c.29,0,.52,.25,.52,.55v.38c0,.3-.23,.55-.52,.55Z"/>
      <path class="cls-1" d="M3.36,6.62h-.36c-.29,0-.52-.25-.52-.55v-.38c0-.3,.23-.55,.52-.55h.36c.29,0,.52,.25,.52,.55v.38c0,.3-.23,.55-.52,.55Z"/>
      <path class="cls-1" d="M5.78,6.62h-.36c-.29,0-.52-.25-.52-.55v-.38c0-.3,.23-.55,.52-.55h.36c.29,0,.52,.25,.52,.55v.38c0,.3-.23,.55-.52,.55Z"/>
      <path class="cls-1" d="M8.2,6.62h-.36c-.29,0-.52-.25-.52-.55v-.38c0-.3,.23-.55,.52-.55h.36c.29,0,.52,.25,.52,.55v.38c0,.3-.23,.55-.52,.55Z"/>
      <path class="cls-1" d="M10.62,6.62h-.36c-.29,0-.52-.25-.52-.55v-.38c0-.3,.23-.55,.52-.55h.36c.29,0,.52,.25,.52,.55v.38c0,.3-.23,.55-.52,.55Z"/>
      <path class="cls-1" d="M13.04,6.62h-.36c-.29,0-.52-.25-.52-.55v-.38c0-.3,.23-.55,.52-.55h.36c.29,0,.52,.25,.52,.55v.38c0,.3-.23,.55-.52,.55Z"/>
      <path class="cls-1" d="M15.46,6.62h-.36c-.29,0-.52-.25-.52-.55v-.38c0-.3,.23-.55,.52-.55h.36c.29,0,.52,.25,.52,.55v.38c0,.3-.23,.55-.52,.55Z"/>
    </g>
  </g>
</svg>