
<svg version="1.1"
	 xmlns="http://www.w3.org/2000/svg" xmlns:xlink="http://www.w3.org/1999/xlink" x="0px" y="0px" viewBox="0 0 17.9 14.5"
	 style="enable-background:new 0 0 17.9 14.5;" xml:space="preserve">
<g>
	<g>
		<path style="fill:#BDC0CB;" d="M15.4,0H2.6C1.8,0,1.2,0.6,1.2,1.3V11c0,0.7,0.6,1.3,1.3,1.3h12.8c0.7,0,1.3-0.6,1.3-1.3V1.3
			C16.7,0.6,16.1,0,15.4,0z M15.8,11.1c0,0.2-0.2,0.4-0.4,0.4H2.6c-0.2,0-0.4-0.2-0.4-0.4V1.3c0-0.2,0.2-0.4,0.4-0.4h12.8
			c0.2,0,0.4,0.2,0.4,0.4C15.8,1.3,15.8,11.1,15.8,11.1z"/>
		<path style="fill:#BDC0CB;" d="M17.5,14.5h-17C0.2,14.5,0,14.3,0,14s0.2-0.5,0.5-0.5h17c0.3,0,0.5,0.2,0.5,0.5
			S17.7,14.5,17.5,14.5z"/>
		<path style="fill:#BDC0CB;" d="M12,9.3l-1.2-1.4c0.5-0.5,0.8-1.3,0.8-2.1c0-1.7-1.4-3.1-3.1-3.1S5.3,4.1,5.3,5.8S6.7,9,8.5,9
			c0.6,0,1.1-0.2,1.6-0.4l1.2,1.4c0.1,0.1,0.2,0.2,0.4,0.2c0.1,0,0.2,0,0.3-0.1C12.2,9.8,12.2,9.5,12,9.3z M6.3,5.8
			c0-1.2,1-2.2,2.2-2.2s2.2,1,2.2,2.2c0,0.7-0.3,1.3-0.8,1.7C9.5,7.8,9,8,8.5,8C7.3,8,6.3,7,6.3,5.8z"/>
	</g>
</g>
</svg>
