<svg version="1.1"
	 xmlns="http://www.w3.org/2000/svg" xmlns:xlink="http://www.w3.org/1999/xlink" x="0px" y="0px" viewBox="0 0 17.6 12.6"
	 style="enable-background:new 0 0 17.6 12.6;" xml:space="preserve">
<g>
	<g>
		<path style="fill:#BDC0CB;" d="M8.3,1.9v9.4l0,0V1.9L8.3,1.9z"/>
		<path style="fill:#BDC0CB;" d="M10.7,4.2c-0.1,0-0.3-0.1-0.3-0.2c-0.1-0.2,0-0.4,0.2-0.5c0.8-0.4,1.6-0.6,2.4-0.6
			c0.9,0,1.7,0.2,2.5,0.6c0.2,0.1,0.2,0.3,0.2,0.5c-0.1,0.2-0.3,0.2-0.5,0.2c-0.7-0.4-1.4-0.5-2.1-0.5S11.7,3.9,11,4.2
			C10.8,4.2,10.7,4.2,10.7,4.2L10.7,4.2z"/>
		<path style="fill:#BDC0CB;" d="M10.7,6.5c-0.1,0-0.3-0.1-0.3-0.2c-0.1-0.2,0-0.4,0.2-0.5c0.8-0.4,1.6-0.6,2.4-0.6
			c0.9,0,1.7,0.2,2.5,0.6c0.2,0.1,0.2,0.3,0.2,0.5c-0.1,0.2-0.3,0.2-0.5,0.2C14.5,6.1,13.8,6,13.1,6S11.7,6.2,11,6.5
			C10.8,6.5,10.7,6.5,10.7,6.5L10.7,6.5z"/>
		<path style="fill:#BDC0CB;" d="M15.2,8.7c-0.1,0-0.1,0-0.2,0c-0.7-0.4-1.4-0.6-2.1-0.5c-0.7,0-1.4,0.2-2.1,0.5
			c-0.2,0.1-0.4,0-0.5-0.2s0-0.4,0.2-0.5c0.8-0.4,1.6-0.6,2.4-0.6c0.9,0,1.7,0.2,2.5,0.6c0.2,0.1,0.2,0.3,0.2,0.5
			C15.5,8.6,15.3,8.7,15.2,8.7L15.2,8.7z"/>
		<path style="fill:#BDC0CB;" d="M9.3,1.9v9.4l0,0V1.9L9.3,1.9z"/>
		<path style="fill:#BDC0CB;" d="M17.3,1.1C16.4,0.6,14.9,0,12.9,0c-1.8,0-3.2,0.5-4.1,1c-1-0.5-2.4-1-4.2-1C2.7,0,1.2,0.6,0.2,1.1
			C0.1,1.2,0,1.4,0,1.6v10.5c0,0.2,0.1,0.3,0.2,0.4c0.1,0.1,0.2,0.1,0.3,0.1s0.1,0,0.2-0.1c0.9-0.4,2.3-0.9,4.1-0.9
			c1.6,0,2.9,0.5,3.7,0.9c0,0,0,0,0.1,0c0.2,0.1,0.3,0.1,0.5,0c0.9-0.4,2.3-0.9,4-0.9s3,0.5,3.8,0.9c0.1,0.1,0.3,0.1,0.5,0
			c0.1-0.1,0.2-0.2,0.2-0.4V1.6C17.6,1.4,17.5,1.2,17.3,1.1z M4.7,10.6c-1.5,0-2.7,0.3-3.7,0.7V1.9C1.8,1.5,3,1,4.6,1
			s2.9,0.4,3.7,0.9l0,0v9.4l0,0c-0.9-0.3-2.1-0.7-3.5-0.7C4.8,10.6,4.7,10.6,4.7,10.6z M16.6,11.3c-0.9-0.3-2.1-0.7-3.5-0.7h-0.2
			c-1.5,0-2.7,0.3-3.6,0.7l0,0V1.9l0,0c0.8-0.4,2-0.9,3.6-0.9s2.9,0.4,3.7,0.9C16.6,1.9,16.6,11.3,16.6,11.3z"/>
		<path style="fill:#BDC0CB;" d="M6.2,3.7C6,3.5,5.8,3.3,5.5,3.2S5,3,4.6,3s-0.7,0-1,0.2S3.1,3.5,2.9,3.8C2.8,4,2.7,4.2,2.7,4.5
			c0,0.1,0,0.2,0.1,0.2C2.9,4.8,3,4.8,3.1,4.8s0.3,0,0.4-0.4c0.1-0.3,0.2-0.5,0.4-0.7C4,3.6,4.3,3.5,4.6,3.5c0.3,0,0.5,0.1,0.7,0.2
			s0.3,0.4,0.3,0.6c0,0.1,0,0.2-0.1,0.3C5.4,4.9,5.3,5,5.2,5c0,0.1-0.1,0.2-0.3,0.4C4.7,5.5,4.5,5.7,4.4,5.8C4.3,5.9,4.3,6,4.2,6.2
			C4.1,6.3,4.1,6.5,4.1,6.7c0,0.1,0,0.2,0.1,0.3c0.1,0.1,0.2,0.1,0.2,0.1c0.2,0,0.3-0.1,0.3-0.3c0-0.1,0.1-0.2,0.1-0.3
			c0-0.1,0-0.1,0.1-0.2S5,6.2,5.1,6.2c0-0.1,0.1-0.2,0.2-0.3C5.6,5.6,5.8,5.4,6,5.3c0.1-0.1,0.2-0.2,0.3-0.4
			c0.1-0.2,0.1-0.3,0.1-0.5C6.4,4.1,6.3,3.9,6.2,3.7z M4.8,7.8c-0.1,0-0.2-0.1-0.3-0.1s-0.2,0-0.3,0.1S4,8,4,8.2
			c0,0.1,0,0.3,0.1,0.3c0.2,0.2,0.5,0.2,0.7,0C4.9,8.4,5,8.3,5,8.2C5,8,4.9,7.9,4.8,7.8z"/>
	</g>
</g>
</svg>
