<?xml version="1.0" encoding="UTF-8"?>
<svg id="Layer_2" data-name="Layer 2" xmlns="http://www.w3.org/2000/svg" viewBox="0 0 17.59 12.56">
  <defs>
    <style>
      .cls-1 {
        fill: #bdc0cb;
      }
    </style>
  </defs>
  <g id="Layer_2-2" data-name="Layer 2">
    <g>
      <path class="cls-1" d="M8.29,1.87V11.3h.01V1.87h-.01Z"/>
      <path class="cls-1" d="M10.67,4.24c-.13,0-.26-.07-.33-.2-.1-.18-.03-.41,.16-.51,.77-.41,1.58-.62,2.4-.62,.85-.01,1.7,.2,2.5,.62,.18,.1,.25,.32,.16,.51-.1,.18-.32,.25-.51,.16-.69-.36-1.43-.55-2.14-.54-.7,0-1.39,.19-2.06,.54-.06,.03-.12,.04-.17,.04Z"/>
      <path class="cls-1" d="M10.67,6.47c-.13,0-.26-.07-.33-.2-.1-.18-.03-.41,.16-.51,.77-.41,1.58-.62,2.4-.62,.85-.01,1.7,.2,2.5,.62,.18,.1,.25,.32,.16,.51-.1,.18-.32,.25-.51,.16-.69-.36-1.43-.54-2.14-.54-.7,0-1.39,.19-2.06,.54-.06,.03-.12,.04-.17,.04Z"/>
      <path class="cls-1" d="M15.21,8.7c-.06,0-.12-.01-.17-.04-.69-.36-1.4-.55-2.14-.54-.7,0-1.39,.19-2.06,.54-.18,.1-.41,.03-.51-.16-.1-.18-.03-.41,.16-.51,.77-.41,1.58-.62,2.4-.62,.87,0,1.7,.2,2.5,.62,.18,.1,.25,.32,.16,.51-.07,.13-.2,.2-.33,.2Z"/>
      <path class="cls-1" d="M9.29,1.87V11.3h.01V1.87h-.01Z"/>
      <path class="cls-1" d="M17.34,1.14c-.93-.53-2.48-1.14-4.46-1.14-1.77,.01-3.17,.52-4.09,1-.96-.49-2.42-1-4.2-1C2.65,.01,1.16,.62,.25,1.14c-.16,.08-.25,.25-.25,.43V12.06c0,.17,.08,.33,.23,.42,.08,.06,.17,.08,.27,.08,.07,0,.14-.02,.21-.05,.88-.42,2.28-.94,4.08-.89,1.63,.03,2.92,.48,3.73,.86,.02,.01,.04,.02,.06,.03,.16,.08,.34,.07,.49-.03,.87-.41,2.27-.91,4.02-.86,1.66,.03,2.98,.5,3.79,.89,.15,.08,.33,.07,.48-.03,.15-.09,.23-.25,.23-.42V1.57c0-.18-.09-.35-.25-.43ZM4.65,10.62c-1.48,0-2.73,.32-3.65,.68V1.87c.81-.42,2.04-.86,3.59-.87,1.6-.02,2.86,.44,3.7,.87h.01V11.3h-.01c-.88-.34-2.07-.66-3.48-.68h-.16Zm11.94,.68c-.88-.34-2.07-.66-3.49-.68h-.16c-1.47,0-2.72,.32-3.64,.68h-.01V1.87h.01c.82-.42,2.04-.86,3.59-.87,1.57-.02,2.86,.44,3.7,.87V11.3Z"/>
      <path class="cls-1" d="M6.16,3.69c-.14-.22-.35-.4-.62-.53s-.58-.19-.94-.19c-.39,0-.72,.07-1.01,.23-.28,.16-.5,.35-.65,.59-.14,.23-.22,.46-.22,.68,0,.09,.04,.17,.12,.25,.07,.08,.17,.12,.28,.12,.12,0,.29-.04,.38-.36,.1-.3,.23-.53,.37-.68,.16-.17,.41-.26,.73-.26,.27,0,.5,.08,.68,.25s.28,.37,.28,.62c0,.12-.04,.25-.1,.35-.05,.11-.12,.2-.21,.28-.07,.08-.19,.19-.36,.34-.19,.16-.34,.3-.45,.42-.1,.11-.18,.24-.24,.38-.06,.15-.09,.32-.09,.52,0,.14,.03,.24,.1,.31,.06,.06,.15,.1,.25,.1,.2,0,.31-.1,.34-.31,.03-.13,.06-.22,.07-.28,.02-.05,.04-.11,.07-.17,.03-.06,.07-.12,.14-.19,.05-.07,.13-.14,.22-.23,.32-.28,.54-.48,.66-.61,.12-.11,.22-.24,.3-.4,.08-.15,.12-.32,.12-.52,0-.26-.07-.5-.22-.71Zm-1.33,4.15c-.09-.09-.19-.13-.33-.13-.13,0-.24,.04-.33,.13s-.13,.2-.13,.33c0,.15,.04,.26,.13,.34,.19,.16,.46,.17,.66-.01,.09-.08,.13-.19,.13-.33,0-.13-.04-.24-.13-.33Z"/>
    </g>
  </g>
</svg>