<?xml version="1.0" encoding="utf-8"?>
<!-- Generator: Adobe Illustrator 26.4.1, SVG Export Plug-In . SVG Version: 6.00 Build 0)  -->
<svg version="1.1" id="Layer_1" xmlns="http://www.w3.org/2000/svg" xmlns:xlink="http://www.w3.org/1999/xlink" x="0px" y="0px"
	 viewBox="0 0 566.9 566.9" style="enable-background:new 0 0 566.9 566.9;" xml:space="preserve">
<style type="text/css">
	.st0{fill:url(#SVGID_1_);}
	.st1{fill:#FFFFFF;}
</style>
<linearGradient id="SVGID_1_" gradientUnits="userSpaceOnUse" x1="0" y1="283.4646" x2="566.9291" y2="283.4646">
	<stop  offset="0" style="stop-color:#F7941D"/>
	<stop  offset="0.1633" style="stop-color:#F8991D"/>
	<stop  offset="0.4095" style="stop-color:#FAA81D"/>
	<stop  offset="0.7063" style="stop-color:#FEC11B"/>
	<stop  offset="1" style="stop-color:#FFDE17"/>
</linearGradient>
<path class="st0" d="M393.4,566.9H173.5C77.7,566.9,0,489.2,0,393.4l0-219.9C0,77.7,77.7,0,173.5,0h219.9
	c95.8,0,173.5,77.7,173.5,173.5v219.9C566.9,489.2,489.2,566.9,393.4,566.9z"/>
<g>
	<path class="st1" d="M119.9,421.9H76.8l96.8-269.1h46.9l96.8,269.1h-43.1l-76.1-220.2h-2.1L119.9,421.9z M127.1,316.5h139.8v34.2
		H127.1V316.5z"/>
	<path class="st1" d="M429.4,237.8c-2.5-8-5.9-15.1-10.2-21.5c-4.2-6.3-9.3-11.8-15.2-16.3c-5.9-4.5-12.5-7.9-20-10.3
		c-7.5-2.4-15.7-3.5-24.6-3.5c-15.2,0-28.8,3.9-41,11.7c-12.2,7.8-21.8,19.2-28.8,34.2c-7.1,15-10.6,33.4-10.6,55.1
		c0,21.8,3.5,40.3,10.6,55.3c7.1,15.1,16.8,26.5,29.2,34.3c12.4,7.8,26.4,11.7,42.2,11.7c14.6,0,27.4-3,38.3-8.9
		c10.9-6,19.4-14.4,25.4-25.3c6-10.9,9-23.8,9-38.6l10.5,2h-77v-33.5h105.8v30.6c0,22.6-4.8,42.2-14.4,58.8
		c-9.6,16.6-22.8,29.4-39.7,38.4c-16.9,9-36.2,13.5-57.9,13.5c-24.4,0-45.7-5.6-64.1-16.8c-18.4-11.2-32.7-27.1-42.9-47.8
		c-10.2-20.6-15.4-45.1-15.4-73.5c0-21.5,3-40.7,8.9-57.8c6-17.1,14.3-31.6,25.2-43.6c10.8-12,23.6-21.1,38.2-27.5
		c14.7-6.3,30.7-9.5,48.2-9.5c14.5,0,28.1,2.1,40.7,6.4c12.6,4.3,23.8,10.4,33.6,18.3c9.9,7.9,18,17.2,24.5,28.1
		c6.5,10.8,10.9,22.8,13.1,35.9H429.4z"/>
</g>
</svg>
